<svg id="Capa_1" data-name="Capa 1" xmlns="http://www.w3.org/2000/svg" viewBox="0 0 430.11 430.12"><defs><style>.cls-1{fill:#fff;}</style></defs><title>github-logo-square</title><path id="LinkedIn_alt_" data-name="LinkedIn (alt)" d="M398.36,0H31.78C14.23,0,0,13.79,0,30.82V399.29c0,17,14.23,30.83,31.78,30.83H398.36c17.55,0,31.76-13.81,31.76-30.83V30.82C430.11,13.8,415.9,0,398.36,0ZM230.88,194c0.11-.18.27-0.4,0.42-0.61V194h-0.42Z" transform="translate(0)"/><path class="cls-1" d="M332.95,79.6c6-17.23,2-40.77-4.25-54.94-13,.47-22.62,2.38-34,7.4C286,35.91,276.08,46,267.1,46.84c-9.16.86-21.81-4.6-34-5.27C204.21,40,182,43,160.91,49c-17-11.27-33.45-23.09-60.53-24.3-9,13.49-11.12,41.83-4.25,59.16-24.26,20.63-28.12,76-17,110.92,16.24,31.73,57.53,56.54,99.81,62.33-8.52,6.33-14.29,15.37-17,27.48-9.64,2.27-15.06,5.65-25.48,5.27-34-1.18-35.43-49.24-73.27-40.13,2.89,10.34,12.86,11.37,19.1,19s7.56,17.79,12.75,26.41c11.6,19.19,35.3,26.18,65.86,20.07-2.09,18.33,3.72,36.2-2.13,48.59-4.18,8.9-14,7.35-15.91,16.9,14.41,5.72,33.4.14,39.29-12.68,10.23-22.28-8-65.72,8.5-78.17-3.62,27.25,5.75,60.9-2.14,83.47-2.69,7.7-9.76,10.57-8.5,19,43.25,5.37,34.83-49.67,35-89.8,0-4.58-3.28-15.31,4.25-15.85,8.15,41.1-12.69,110.71,37.18,105.65,2.18-7.92-5.75-11.31-8.5-20.09-7-22.32-.06-57.41-1.06-82.39,14.26,15.53,1.17,51,6.36,73.95,3,13.37,29.63,27.5,40.36,14.8-4.38-6.73-10.89-6.93-14.87-14.8-8.31-16.42.11-52.49-3.17-77.11-2.2-16.49-11.22-20.38-15.93-30.63,43.81-3.22,78.74-31.19,94.51-62.31C366.09,151.86,357.61,100.66,332.95,79.6Z" transform="translate(0)"/><path id="Github_alt_" data-name="Github (alt)" class="cls-1" d="M348.75,210.59" transform="translate(0)"/></svg>