<svg id="Capa_1" data-name="Capa 1" xmlns="http://www.w3.org/2000/svg" viewBox="0 0 430.11 430.12"><defs><style>.cls-1{fill:#1b86bc;}.cls-2{fill:#fff;}</style></defs><title>linkedin-logo-square</title><path id="LinkedIn_alt_" data-name="LinkedIn (alt)" class="cls-1" d="M398.36,0H31.78C14.23,0,0,13.79,0,30.82V399.29c0,17,14.23,30.83,31.78,30.83H398.36c17.55,0,31.76-13.81,31.76-30.83V30.82C430.11,13.8,415.9,0,398.36,0Zm-268,360h-65V165.85h65V360ZM97.91,139.32H97.48c-21.79,0-35.92-14.9-35.92-33.56,0-19,14.54-33.54,36.77-33.54s35.9,14.5,36.33,33.54C134.65,124.42,120.56,139.32,97.91,139.32ZM364.66,360h-65V256.14c0-26.11-9.41-43.92-32.91-43.92-18,0-28.64,12-33.33,23.62-1.74,4.14-2.17,9.94-2.17,15.73V360h-65s0.85-176,0-194.19h65v27.53c8.62-13.23,24-32.1,58.53-32.1,42.76,0,74.82,27.74,74.82,87.41V360h0ZM230.88,194c0.11-.18.27-0.4,0.42-0.61V194h-0.42Z" transform="translate(0)"/><path id="LinkedIn_alt_2" data-name="LinkedIn (alt)" class="cls-2" d="M130.4,360.48h-65V166.29h65V360.48ZM97.91,139.76H97.48c-21.79,0-35.92-14.9-35.92-33.56,0-19,14.54-33.54,36.77-33.54s35.9,14.5,36.33,33.54C134.65,124.86,120.55,139.76,97.91,139.76ZM364.66,360.48h-65V256.58c0-26.11-9.41-43.92-32.91-43.92-18,0-28.64,12-33.33,23.62-1.74,4.14-2.17,9.94-2.17,15.73V360.48h-65s0.85-176,0-194.19h65v27.53c8.62-13.23,24-32.1,58.53-32.1,42.76,0,74.82,27.74,74.82,87.41V360.48h0Zm-133.78-166c0.11-.18.27-0.4,0.42-0.61v0.61h-0.42Z" transform="translate(0)"/></svg>