<svg id="Capa_1" data-name="Capa 1" xmlns="http://www.w3.org/2000/svg" viewBox="0 0 430.11 430.12"><defs><style>.cls-1{fill:#1da1f2;}.cls-2{fill:#fff;}</style></defs><title>twitter-logo-square</title><path id="LinkedIn_alt_" data-name="LinkedIn (alt)" class="cls-1" d="M398.36,0H31.78C14.23,0,0,13.79,0,30.82V399.29c0,17,14.23,30.83,31.78,30.83H398.36c17.55,0,31.76-13.81,31.76-30.83V30.82C430.11,13.8,415.9,0,398.36,0ZM230.88,194c0.11-.18.27-0.4,0.42-0.61V194h-0.42Z" transform="translate(0)"/><path id="Twitter" class="cls-2" d="M293.86,295.69H215.19a39.24,39.24,0,0,1-39.35-39.49v-28h112.1a36.88,36.88,0,0,0,26-63,35.76,35.76,0,0,0-26.15-10.86h-112V96.45a38.51,38.51,0,0,0-11.65-28.12,37.83,37.83,0,0,0-27.89-11.74A38.84,38.84,0,0,0,107.94,68.1Q96.32,79.61,96.33,96.49V256.22q0,49.28,34.85,84.22t84.06,35h78.65A39.86,39.86,0,0,0,293.86,295.69Z" transform="translate(0)"/></svg>